<svg width="64" height="64" viewBox="0 0 64 64" fill="none" xmlns="http://www.w3.org/2000/svg">
<g clip-path="url(#clip0_124_671)">
<path d="M42.6667 42.6667C48.5577 42.6667 53.3333 37.8911 53.3333 32C53.3333 26.109 48.5577 21.3334 42.6667 21.3334C36.7756 21.3334 32 26.109 32 32C32 37.8911 36.7756 42.6667 42.6667 42.6667Z" fill="#19BCFE"/>
<path fill-rule="evenodd" clip-rule="evenodd" d="M21.3334 64C27.2245 64 32.0001 59.2243 32.0001 53.3333C32.0001 51.7251 32.0001 48.1696 32.0001 42.6666C27.2082 42.6666 23.6526 42.6666 21.3334 42.6666C15.4424 42.6666 10.6667 47.4423 10.6667 53.3333C10.6667 59.2243 15.4424 64 21.3334 64Z" fill="#09CF83"/>
<path fill-rule="evenodd" clip-rule="evenodd" d="M21.3334 42.6667C23.2971 42.6667 26.8526 42.6667 32.0001 42.6667V21.3334C26.8526 21.3334 23.2971 21.3334 21.3334 21.3334C15.4424 21.3334 10.6667 26.109 10.6667 32C10.6667 37.8911 15.4424 42.6667 21.3334 42.6667Z" fill="#A259FF"/>
<path fill-rule="evenodd" clip-rule="evenodd" d="M21.3334 21.3333C23.2971 21.3333 26.8526 21.3333 32.0001 21.3333V0C26.8526 0 23.2971 0 21.3334 0C15.4424 0 10.6667 4.77563 10.6667 10.6667C10.6667 16.5577 15.4424 21.3333 21.3334 21.3333Z" fill="#F24E1E"/>
<path fill-rule="evenodd" clip-rule="evenodd" d="M42.6667 21.3333H32V0H42.6667C48.5577 0 53.3333 4.77563 53.3333 10.6667C53.3333 16.5577 48.5577 21.3333 42.6667 21.3333Z" fill="#FF7262"/>
</g>
<defs>
<clipPath id="clip0_124_671">
<rect width="64" height="64" fill="white"/>
</clipPath>
</defs>
</svg>
