<svg width="32" height="32" viewBox="0 0 32 32" fill="none" xmlns="http://www.w3.org/2000/svg">
<path d="M25.3336 4.00146C26.0408 4.00146 26.7191 4.28242 27.2192 4.78251C27.7193 5.28261 28.0002 5.96089 28.0002 6.66813V25.3348C28.0002 26.042 27.7193 26.7203 27.2192 27.2204C26.7191 27.7205 26.0408 28.0015 25.3336 28.0015H6.66691C5.95967 28.0015 5.28139 27.7205 4.78129 27.2204C4.2812 26.7203 4.00024 26.042 4.00024 25.3348V6.66813C4.00024 5.96089 4.2812 5.28261 4.78129 4.78251C5.28139 4.28242 5.95967 4.00146 6.66691 4.00146H25.3336ZM24.6669 24.6681V17.6015C24.6669 16.4487 24.209 15.3431 23.3938 14.5279C22.5786 13.7127 21.4731 13.2548 20.3202 13.2548C19.1869 13.2548 17.8669 13.9481 17.2269 14.9881V13.5081H13.5069V24.6681H17.2269V18.0948C17.2269 17.0681 18.0536 16.2281 19.0802 16.2281C19.5753 16.2281 20.0501 16.4248 20.4002 16.7749C20.7502 17.1249 20.9469 17.5997 20.9469 18.0948V24.6681H24.6669ZM9.17358 11.4148C9.76766 11.4148 10.3374 11.1788 10.7575 10.7587C11.1776 10.3386 11.4136 9.76888 11.4136 9.1748C11.4136 7.9348 10.4136 6.92146 9.17358 6.92146C8.57596 6.92146 8.00281 7.15887 7.58023 7.58145C7.15765 8.00403 6.92024 8.57718 6.92024 9.1748C6.92024 10.4148 7.93358 11.4148 9.17358 11.4148ZM11.0269 24.6681V13.5081H7.33358V24.6681H11.0269Z" fill="white"/>
</svg>
